<mxfile host="65bd71144e">
    <diagram id="C5RBs43oDa-KdzZeNtuy" name="Page-1">
        <mxGraphModel dx="2658" dy="857" grid="1" gridSize="10" guides="1" tooltips="1" connect="1" arrows="1" fold="1" page="1" pageScale="1" pageWidth="827" pageHeight="1169" math="0" shadow="0">
            <root>
                <mxCell id="WIyWlLk6GJQsqaUBKTNV-0"/>
                <mxCell id="WIyWlLk6GJQsqaUBKTNV-1" parent="WIyWlLk6GJQsqaUBKTNV-0"/>
                <mxCell id="WIyWlLk6GJQsqaUBKTNV-2" value="" style="rounded=0;html=1;jettySize=auto;orthogonalLoop=1;fontSize=11;endArrow=block;endFill=0;endSize=8;strokeWidth=1;shadow=0;labelBackgroundColor=none;edgeStyle=orthogonalEdgeStyle;entryX=0.5;entryY=0;entryDx=0;entryDy=0;" parent="WIyWlLk6GJQsqaUBKTNV-1" source="WIyWlLk6GJQsqaUBKTNV-3" target="mqQNVszAwujIR4dd69Oa-6" edge="1">
                    <mxGeometry relative="1" as="geometry">
                        <mxPoint x="220" y="170" as="targetPoint"/>
                    </mxGeometry>
                </mxCell>
                <mxCell id="mqQNVszAwujIR4dd69Oa-1" value="" style="edgeStyle=orthogonalEdgeStyle;rounded=0;orthogonalLoop=1;jettySize=auto;html=1;" parent="WIyWlLk6GJQsqaUBKTNV-1" source="WIyWlLk6GJQsqaUBKTNV-3" target="mqQNVszAwujIR4dd69Oa-0" edge="1">
                    <mxGeometry relative="1" as="geometry"/>
                </mxCell>
                <mxCell id="WIyWlLk6GJQsqaUBKTNV-3" value="Deploy Contract" style="rounded=1;whiteSpace=wrap;html=1;fontSize=12;glass=0;strokeWidth=1;shadow=0;" parent="WIyWlLk6GJQsqaUBKTNV-1" vertex="1">
                    <mxGeometry x="160" y="80" width="120" height="40" as="geometry"/>
                </mxCell>
                <mxCell id="mqQNVszAwujIR4dd69Oa-3" value="" style="edgeStyle=orthogonalEdgeStyle;rounded=0;orthogonalLoop=1;jettySize=auto;html=1;" parent="WIyWlLk6GJQsqaUBKTNV-1" source="mqQNVszAwujIR4dd69Oa-0" target="mqQNVszAwujIR4dd69Oa-2" edge="1">
                    <mxGeometry relative="1" as="geometry"/>
                </mxCell>
                <mxCell id="mqQNVszAwujIR4dd69Oa-0" value="User sets" style="rounded=1;whiteSpace=wrap;html=1;fontSize=12;glass=0;strokeWidth=1;shadow=0;" parent="WIyWlLk6GJQsqaUBKTNV-1" vertex="1">
                    <mxGeometry x="360" y="80" width="120" height="40" as="geometry"/>
                </mxCell>
                <mxCell id="mqQNVszAwujIR4dd69Oa-5" value="" style="edgeStyle=orthogonalEdgeStyle;rounded=0;orthogonalLoop=1;jettySize=auto;html=1;" parent="WIyWlLk6GJQsqaUBKTNV-1" source="mqQNVszAwujIR4dd69Oa-2" target="mqQNVszAwujIR4dd69Oa-4" edge="1">
                    <mxGeometry relative="1" as="geometry"/>
                </mxCell>
                <mxCell id="mqQNVszAwujIR4dd69Oa-16" value="" style="edgeStyle=orthogonalEdgeStyle;rounded=0;orthogonalLoop=1;jettySize=auto;html=1;" parent="WIyWlLk6GJQsqaUBKTNV-1" source="mqQNVszAwujIR4dd69Oa-2" target="mqQNVszAwujIR4dd69Oa-15" edge="1">
                    <mxGeometry relative="1" as="geometry"/>
                </mxCell>
                <mxCell id="mqQNVszAwujIR4dd69Oa-2" value="&lt;ul&gt;&lt;li&gt;Sets callback to pause protocol (optional)&lt;/li&gt;&lt;li style=&quot;&quot;&gt;Limit event (optional)&lt;/li&gt;&lt;li style=&quot;&quot;&gt;Staleness event (optional)&lt;/li&gt;&lt;li style=&quot;&quot;&gt;Volatility event (optional)&lt;/li&gt;&lt;li style=&quot;&quot;&gt;OCR feed/s address to listen to&lt;/li&gt;&lt;/ul&gt;" style="rounded=1;whiteSpace=wrap;html=1;fontSize=12;glass=0;strokeWidth=1;shadow=0;align=left;" parent="WIyWlLk6GJQsqaUBKTNV-1" vertex="1">
                    <mxGeometry x="580" y="10" width="230" height="135" as="geometry"/>
                </mxCell>
                <mxCell id="mqQNVszAwujIR4dd69Oa-4" value="&lt;ul&gt;&lt;li&gt;&lt;span style=&quot;background-color: initial;&quot;&gt;able to view all configured events&lt;/span&gt;&lt;/li&gt;&lt;li&gt;&lt;span style=&quot;background-color: initial;&quot;&gt;able to add/remove events&lt;/span&gt;&lt;/li&gt;&lt;/ul&gt;" style="rounded=1;whiteSpace=wrap;html=1;fontSize=12;glass=0;strokeWidth=1;shadow=0;align=left;" parent="WIyWlLk6GJQsqaUBKTNV-1" vertex="1">
                    <mxGeometry x="890" y="55" width="230" height="90" as="geometry"/>
                </mxCell>
                <mxCell id="mqQNVszAwujIR4dd69Oa-8" value="" style="edgeStyle=orthogonalEdgeStyle;rounded=0;orthogonalLoop=1;jettySize=auto;html=1;" parent="WIyWlLk6GJQsqaUBKTNV-1" source="mqQNVszAwujIR4dd69Oa-6" target="mqQNVszAwujIR4dd69Oa-7" edge="1">
                    <mxGeometry relative="1" as="geometry"/>
                </mxCell>
                <mxCell id="mqQNVszAwujIR4dd69Oa-11" value="" style="edgeStyle=orthogonalEdgeStyle;rounded=0;orthogonalLoop=1;jettySize=auto;html=1;" parent="WIyWlLk6GJQsqaUBKTNV-1" source="mqQNVszAwujIR4dd69Oa-6" target="mqQNVszAwujIR4dd69Oa-10" edge="1">
                    <mxGeometry relative="1" as="geometry"/>
                </mxCell>
                <mxCell id="mqQNVszAwujIR4dd69Oa-6" value="Check Upkeep&lt;br&gt;checks OCR feed against pre set events" style="rounded=1;whiteSpace=wrap;html=1;" parent="WIyWlLk6GJQsqaUBKTNV-1" vertex="1">
                    <mxGeometry x="160" y="180" width="120" height="60" as="geometry"/>
                </mxCell>
                <mxCell id="mqQNVszAwujIR4dd69Oa-7" value="Do nothing" style="rounded=1;whiteSpace=wrap;html=1;" parent="WIyWlLk6GJQsqaUBKTNV-1" vertex="1">
                    <mxGeometry x="-30" y="260" width="120" height="60" as="geometry"/>
                </mxCell>
                <mxCell id="mqQNVszAwujIR4dd69Oa-9" value="Not needed" style="text;html=1;align=center;verticalAlign=middle;resizable=0;points=[];autosize=1;strokeColor=none;fillColor=none;" parent="WIyWlLk6GJQsqaUBKTNV-1" vertex="1">
                    <mxGeometry x="45" y="175" width="90" height="30" as="geometry"/>
                </mxCell>
                <mxCell id="mqQNVszAwujIR4dd69Oa-14" value="" style="edgeStyle=orthogonalEdgeStyle;rounded=0;orthogonalLoop=1;jettySize=auto;html=1;" parent="WIyWlLk6GJQsqaUBKTNV-1" source="mqQNVszAwujIR4dd69Oa-10" target="mqQNVszAwujIR4dd69Oa-13" edge="1">
                    <mxGeometry relative="1" as="geometry"/>
                </mxCell>
                <mxCell id="mqQNVszAwujIR4dd69Oa-10" value="Perform Upkeep" style="rounded=1;whiteSpace=wrap;html=1;" parent="WIyWlLk6GJQsqaUBKTNV-1" vertex="1">
                    <mxGeometry x="330" y="260" width="120" height="60" as="geometry"/>
                </mxCell>
                <mxCell id="mqQNVszAwujIR4dd69Oa-12" value="Yes" style="text;html=1;align=center;verticalAlign=middle;resizable=0;points=[];autosize=1;strokeColor=none;fillColor=none;" parent="WIyWlLk6GJQsqaUBKTNV-1" vertex="1">
                    <mxGeometry x="310" y="175" width="40" height="30" as="geometry"/>
                </mxCell>
                <mxCell id="mqQNVszAwujIR4dd69Oa-13" value="Emits the pre set event/s and or calls threshold func (callback)" style="rounded=1;whiteSpace=wrap;html=1;" parent="WIyWlLk6GJQsqaUBKTNV-1" vertex="1">
                    <mxGeometry x="330" y="400" width="120" height="100" as="geometry"/>
                </mxCell>
                <mxCell id="mqQNVszAwujIR4dd69Oa-15" value="Limit event:&lt;br&gt;&lt;ul&gt;&lt;li&gt;percentage proximity to a price&lt;/li&gt;&lt;/ul&gt;Staleness event:&lt;br&gt;&lt;ul&gt;&lt;li&gt;number of seconds since last update of feed&lt;/li&gt;&lt;/ul&gt;Volatility event&lt;br&gt;&lt;ul&gt;&lt;li&gt;percentage of deviation from last update&lt;/li&gt;&lt;/ul&gt;" style="rounded=1;whiteSpace=wrap;html=1;fontSize=12;glass=0;strokeWidth=1;shadow=0;align=left;" parent="WIyWlLk6GJQsqaUBKTNV-1" vertex="1">
                    <mxGeometry x="770" y="230" width="300" height="215" as="geometry"/>
                </mxCell>
            </root>
        </mxGraphModel>
    </diagram>
</mxfile>
